<svg xmlns="http://www.w3.org/2000/svg" version="1.0" preserveAspectRatio="xMidYMid meet" viewBox="89 48.12 71.56 103.88">
<metadata>
Created by potrace 1.10, written by Peter Selinger 2001-2011
</metadata>
<g transform="translate(0.000000,203.000000) scale(0.100000,-0.100000)" fill="#000000" stroke="none">
<path d="M1260 1530 c-59 -20 -88 -48 -97 -92 -3 -15 -14 -30 -24 -33 -10 -3 -24 -22 -31 -41 -6 -18 -18 -34 -25 -34 -7 0 -27 -13 -44 -28 -26 -23 -33 -38 -37 -80 -4 -44 -8 -52 -25 -52 -11 0 -35 -16 -53 -36 -28 -29 -34 -43 -34 -77 0 -47 12 -73 28 -63 8 5 8 15 1 33 -21 57 25 123 86 123 31 0 35 3 30 19 -19 62 -7 107 37 128 12 7 67 13 120 15 54 2 102 8 108 14 7 7 -22 9 -85 6 -81 -4 -95 -2 -95 11 0 19 37 47 62 47 14 0 17 5 12 24 -9 38 3 63 40 80 44 21 60 20 52 0 -9 -22 35 -78 87 -111 61 -39 97 -74 97 -96 0 -54 -62 -92 -210 -128 -108 -27 -88 -39 23 -14 87 19 157 44 157 56 0 18 27 8 53 -19 31 -32 36 -77 10 -90 -27 -14 -83 -21 -249 -31 -93 -6 -166 -16 -188 -25 -47 -19 -46 -26 2 -15 20 5 117 13 214 18 125 7 185 14 207 25 16 9 37 16 45 16 21 0 46 -39 46 -72 0 -16 5 -28 10 -28 6 0 10 3 11 8 0 4 2 16 4 26 5 26 -20 73 -45 86 -11 6 -18 15 -15 20 9 15 -15 64 -42 86 -23 18 -25 24 -16 50 6 16 7 38 3 49 -9 23 -71 80 -121 110 -18 11 -40 32 -49 48 -14 25 -13 30 2 57 20 36 14 37 -62 10z"/>
<path d="M1387 1292 c-5 -24 -18 -38 -59 -62 -53 -30 -54 -41 -1 -18 34 15 93 58 93 67 0 4 -6 15 -13 26 -13 17 -14 16 -20 -13z"/>
<path d="M910 955 c-15 -18 -13 -30 37 -267 l37 -178 256 0 255 0 22 103 c62 288 68 324 54 341 -15 18 -52 21 -68 5 -8 -8 -13 -8 -17 0 -9 15 -49 14 -64 -1 -9 -9 -15 -9 -24 0 -15 15 -50 16 -65 1 -8 -8 -13 -8 -17 0 -9 15 -49 14 -64 -1 -9 -9 -15 -9 -24 0 -15 15 -50 16 -65 1 -8 -8 -13 -8 -17 0 -9 15 -49 14 -64 -1 -9 -9 -15 -9 -24 0 -15 15 -54 16 -63 2 -4 -7 -12 -7 -25 0 -26 14 -46 12 -60 -5z m58 -18 c8 -9 72 -370 72 -404 0 -1 -8 -3 -18 -3 -16 0 -24 29 -61 200 -23 111 -39 205 -36 210 9 14 31 12 43 -3z m85 -9 c9 -14 19 -84 26 -173 7 -82 15 -167 18 -187 5 -33 3 -38 -14 -38 -16 0 -22 8 -26 38 -3 20 -17 110 -31 200 -15 90 -24 167 -21 173 11 16 34 10 48 -13z m85 5 c5 -10 13 -105 17 -210 7 -187 6 -193 -13 -193 -18 0 -21 12 -32 133 -6 72 -15 162 -19 199 -7 67 -1 88 26 88 7 0 16 -8 21 -17z m80 5 c9 -9 12 -69 12 -210 l0 -198 -24 0 -24 0 -7 199 c-4 110 -4 204 -1 210 9 14 29 14 44 -1z m87 1 c4 -6 4 -100 0 -210 l-8 -199 -23 0 -24 0 0 198 c0 198 4 222 36 222 7 0 16 -5 19 -11z m84 -3 c6 -7 9 -20 7 -27 -4 -12 -36 -339 -36 -369 0 -6 -9 -10 -21 -10 -21 0 -21 1 -14 198 4 108 12 203 17 210 14 16 33 15 47 -2z m85 5 c4 -5 -7 -94 -24 -198 -16 -103 -30 -194 -30 -200 0 -7 -10 -13 -21 -13 -19 0 -21 4 -16 38 3 20 11 105 18 187 7 90 17 159 26 173 14 23 37 29 47 13z m81 -1 c3 -6 -13 -100 -36 -210 -37 -171 -45 -200 -61 -200 -10 0 -18 2 -18 5 0 33 65 393 72 403 13 15 34 16 43 2z"/>
</g>
</svg>